<?xml version="1.0" encoding="UTF-8"?>
<svg xmlns="http://www.w3.org/2000/svg" viewBox="0 0 1280 700">
  <defs>
    <style>
      .cls-1 {
        fill: red;
        font-size: 55.66px;
        stroke-width: 3px;
      }

      .cls-1, .cls-2 {
        stroke: #000;
      }

      .cls-1, .cls-2, .cls-3 {
        stroke-miterlimit: 10;
      }

      .cls-1, .cls-2, .cls-4 {
        font-family: Kenney-Future-Square, 'Kenney Future Square';
      }

      .cls-2 {
        font-size: 19.41px;
      }

      .cls-2, .cls-5, .cls-4 {
        fill: #9f0000;
      }

      .cls-3 {
        fill: none;
        stroke: #960000;
        stroke-width: 7px;
      }

      .cls-4 {
        font-size: 16.07px;
      }
    </style>
  </defs>
  <g id="BG">
    <rect width="1280" height="700"/>
  </g>
  <g id="Layer_1" data-name="Layer 1">
    <text class="cls-1" transform="translate(524.25 111.22)"><tspan x="0" y="0">&lt;ABOUT&gt;</tspan></text>
    <text class="cls-2" transform="translate(394.25 308.12)"><tspan x="0" y="0">BLK_LXTUS IS A BRAND that upholds exclusivity,</tspan><tspan x="-14.8" y="23.29">integrity, consistency, and customer satisfaction</tspan><tspan x="-49.98" y="46.59">we deliver products no matter the cost which lasts for </tspan><tspan x="70.93" y="69.88">a liftime and generations to come</tspan></text>
    <text class="cls-4" transform="translate(593.44 581.37)"><tspan x="0" y="0">BLK_LXTUS</tspan></text>
    <g>
      <path class="cls-5" d="m683.24,535.73l-5.44-5.47-2.32,2.33,4.69,4.71c.35.35.54.82.54,1.32l.03,19.08c0,1.42-1.14,2.57-2.55,2.57l-19-.03c-.49,0-.96-.2-1.31-.55l-4.69-4.71-2.32,2.33,5.45,5.47c.48.48,1.13.75,1.8.75,4.08,0,17.63.03,23.35.04,1.41,0,2.55-1.15,2.55-2.56l-.04-23.45c0-.68-.27-1.34-.75-1.82Z"/>
      <path class="cls-5" d="m596.92,535.73l5.44-5.47,2.32,2.33-4.69,4.71c-.35.35-.54.82-.54,1.32l-.03,19.08c0,1.42,1.14,2.57,2.55,2.57l19-.03c.49,0,.96-.2,1.31-.55l4.69-4.71,2.32,2.33-5.45,5.47c-.48.48-1.13.75-1.8.75-4.08,0-17.63.03-23.35.04-1.41,0-2.55-1.15-2.55-2.56l.04-23.45c0-.68.27-1.34.75-1.82Z"/>
      <g>
        <path class="cls-5" d="m656.24,476.06l-5.44,5.47,2.32,2.33,4.69-4.71c.35-.35.82-.55,1.31-.55l19-.03c1.41,0,2.56,1.15,2.55,2.56l-.03,19.08c0,.49-.2.97-.54,1.32l-4.69,4.71,2.32,2.33,5.45-5.47c.48-.48.75-1.13.75-1.81,0-4.1.03-17.71.04-23.46,0-1.42-1.14-2.56-2.55-2.56l-23.35.04c-.68,0-1.33.27-1.81.76Z"/>
        <path class="cls-5" d="m623.76,476.06l5.44,5.47-2.32,2.33-4.69-4.71c-.35-.35-.82-.55-1.31-.55l-19-.03c-1.41,0-2.56,1.15-2.55,2.56l.03,19.08c0,.49.2.97.54,1.32l4.69,4.71-2.32,2.33-5.45-5.47c-.48-.48-.75-1.13-.75-1.81,0-4.1-.03-17.71-.04-23.46,0-1.42,1.14-2.56,2.55-2.56l23.35.04c.68,0,1.33.27,1.81.76Z"/>
        <g>
          <path class="cls-5" d="m671.99,504.85h-5.86s0,2.51,0,2.51h5.05c.37,0,.73.15,1,.41l10.25,10.26c.76.76.76,2,0,2.76l-10.25,10.26c-.27.27-.62.41-1,.41h-5.05s0,2.51,0,2.51h5.86c.52,0,1.01-.2,1.38-.57,2.2-2.2,9.51-9.52,12.6-12.61.76-.76.76-2,0-2.76l-12.59-12.61c-.37-.37-.86-.57-1.38-.57Z"/>
          <path class="cls-5" d="m625.51,487.28v5.89s2.49,0,2.49,0v-5.07c0-.38.15-.74.41-1l10.22-10.3c.76-.77,1.99-.77,2.75,0l10.21,10.29c.26.27.41.63.41,1v5.07s2.49,0,2.49,0v-5.89c0-.52-.2-1.01-.57-1.38-2.19-2.21-9.48-9.55-12.56-12.65-.76-.76-1.99-.76-2.75,0l-12.55,12.65c-.36.37-.57.87-.57,1.39Z"/>
          <path class="cls-5" d="m625.5,551.55v-5.89s2.49,0,2.49,0v5.07c0,.38.15.74.41,1l10.21,10.29c.76.77,1.99.77,2.75,0l10.22-10.29c.26-.27.41-.63.41-1v-5.07s2.49,0,2.49,0v5.89c0,.52-.2,1.01-.57,1.38-2.19,2.21-9.48,9.55-12.56,12.65-.76.76-1.99.76-2.75,0l-12.55-12.65c-.36-.37-.57-.87-.57-1.39Z"/>
          <path class="cls-5" d="m608.01,504.85h5.86s0,2.5,0,2.5h-5.05c-.37,0-.73.15-1,.41l-10.25,10.26c-.76.76-.76,2,0,2.76l10.24,10.26c.27.27.62.41,1,.41h5.05s0,2.5,0,2.5h-5.86c-.52,0-1.01-.2-1.38-.57-2.2-2.2-9.51-9.52-12.6-12.61-.76-.76-.76-2,0-2.76l12.6-12.61c.37-.37.86-.57,1.38-.57Z"/>
        </g>
        <g>
          <path class="cls-5" d="m649.39,494.33l-3.15,3.16,1.34,1.35,2.71-2.72c.2-.2.47-.32.76-.32l10.99-.02c.82,0,1.48.66,1.48,1.48l-.02,11.04c0,.29-.11.56-.32.76l-2.71,2.72,1.34,1.35,3.15-3.16c.28-.28.43-.65.43-1.05,0-2.37.02-10.24.02-13.57,0-.82-.66-1.48-1.48-1.48l-13.51.02c-.39,0-.77.16-1.05.44Z"/>
          <path class="cls-5" d="m615.03,509.97l3.15,3.16,1.34-1.35-2.71-2.72c-.2-.2-.31-.48-.32-.76l-.02-11.04c0-.82.66-1.49,1.48-1.48l10.99.02c.28,0,.56.11.76.32l2.71,2.72,1.34-1.35-3.15-3.16c-.28-.28-.65-.44-1.04-.44-2.36,0-10.2-.02-13.51-.02-.82,0-1.48.66-1.47,1.48l.02,13.57c0,.39.16.77.44,1.05Z"/>
          <path class="cls-5" d="m649.4,544.49l-3.15-3.16,1.34-1.35,2.71,2.72c.2.2.47.32.76.32l10.99.02c.82,0,1.48-.66,1.48-1.48l-.02-11.04c0-.29-.11-.56-.32-.76l-2.71-2.72,1.34-1.35,3.15,3.16c.28.28.43.65.43,1.05,0,2.37.02,10.24.02,13.57,0,.82-.66,1.48-1.48,1.48l-13.51-.02c-.39,0-.77-.16-1.05-.44Z"/>
          <path class="cls-5" d="m615.03,528.85l3.15-3.16,1.34,1.35-2.71,2.72c-.2.2-.31.48-.32.76l-.02,11.04c0,.82.66,1.49,1.48,1.48l10.99-.02c.28,0,.56-.11.76-.32l2.71-2.72,1.34,1.35-3.15,3.16c-.28.28-.65.44-1.04.44-2.36,0-10.2.02-13.51.02-.82,0-1.48-.66-1.47-1.48l.02-13.57c0-.39.16-.77.44-1.05Z"/>
        </g>
        <g>
          <path class="cls-5" d="m658.48,511h-3.39s0,1.45,0,1.45h2.92c.22,0,.42.09.58.24l5.92,5.93c.44.44.44,1.16,0,1.6l-5.92,5.93c-.15.15-.36.24-.58.24h-2.92s0,1.45,0,1.45h3.39c.3,0,.58-.12.79-.33,1.27-1.27,5.49-5.5,7.28-7.29.44-.44.44-1.15,0-1.59l-7.27-7.28c-.21-.21-.5-.33-.8-.33Z"/>
          <path class="cls-5" d="m631.63,500.85v3.4s1.44,0,1.44,0v-2.93c0-.22.09-.43.24-.58l5.9-5.95c.44-.44,1.15-.44,1.59,0l5.9,5.94c.15.15.24.36.24.58v2.93s1.44,0,1.44,0v-3.4c0-.3-.12-.59-.33-.8-1.27-1.28-5.47-5.52-7.25-7.31-.44-.44-1.15-.44-1.59,0l-7.25,7.31c-.21.21-.33.5-.33.8Z"/>
          <path class="cls-5" d="m631.63,537.97v-3.4s1.44,0,1.44,0v2.93c0,.22.09.43.24.58l5.9,5.95c.44.44,1.15.44,1.59,0l5.9-5.94c.15-.15.24-.36.24-.58v-2.93s1.44,0,1.44,0v3.4c0,.3-.12.59-.33.8-1.27,1.28-5.47,5.52-7.25,7.31-.44.44-1.15.44-1.59,0l-7.25-7.31c-.21-.21-.33-.5-.33-.8Z"/>
          <path class="cls-5" d="m621.52,511h3.39s0,1.45,0,1.45h-2.92c-.22,0-.42.09-.58.24l-5.92,5.93c-.44.44-.44,1.16,0,1.6l5.92,5.93c.15.15.36.24.58.24h2.92s0,1.45,0,1.45h-3.39c-.3,0-.58-.12-.79-.33-1.27-1.27-5.49-5.5-7.27-7.28-.44-.44-.44-1.15,0-1.59l7.27-7.28c.21-.21.5-.33.8-.33Z"/>
        </g>
        <path class="cls-5" d="m652.27,512.41l-5.4-5.53c-.82-.84-1.93-1.31-3.1-1.31h-7.55c-1.16,0-2.28.47-3.1,1.31l-5.4,5.53c-.79.81-1.24,1.91-1.24,3.05v7.91c0,1.14.44,2.23,1.24,3.05l5.4,5.53c.82.84,1.93,1.31,3.1,1.31h7.55c1.16,0,2.28-.47,3.1-1.31l5.4-5.53c.79-.81,1.24-1.91,1.24-3.05v-7.91c0-1.14-.44-2.23-1.24-3.05Zm-.36,10.29c0,1.14-.44,2.23-1.24,3.05l-4.46,4.58c-.82.84-1.93,1.31-3.1,1.31h-6.22c-1.17,0-2.28-.47-3.1-1.31l-4.46-4.58c-.79-.81-1.24-1.91-1.24-3.05v-6.56c0-1.14.44-2.23,1.24-3.05l4.46-4.58c.82-.84,1.93-1.31,3.1-1.31h6.22c1.17,0,2.28.47,3.1,1.31l4.46,4.58c.79.81,1.24,1.91,1.24,3.05v6.56Z"/>
      </g>
    </g>
    <g>
      <polyline class="cls-3" points="588.6 579.99 588.6 584.32 591.84 587.56 622.08 587.56"/>
      <polyline class="cls-3" points="691.32 579.99 691.32 584.32 688.08 587.56 657.84 587.56"/>
      <polyline class="cls-3" points="588.68 475.63 588.68 471.3 591.92 468.05 622.16 468.05"/>
      <polyline class="cls-3" points="691.4 475.63 691.4 471.3 688.16 468.05 657.92 468.05"/>
    </g>
  </g>
</svg>