<?xml version="1.0" encoding="UTF-8"?>
<svg id="Layer_1" data-name="Layer 1" xmlns="http://www.w3.org/2000/svg" viewBox="0 0 169.74 170.5">
  <defs>
    <style>
      .cls-1 {
        fill: none;
        stroke: red;
        stroke-miterlimit: 10;
      }
    </style>
  </defs>
  <path class="cls-1" d="m163.12,114.83l-9.87-9.91-4.2,4.22,8.5,8.54c.63.63.99,1.49.99,2.39l.06,34.6c0,2.57-2.07,4.65-4.63,4.65l-34.44-.05c-.89,0-1.75-.36-2.38-.99l-8.5-8.54-4.2,4.22,9.87,9.92c.87.87,2.04,1.36,3.27,1.37,7.39.01,31.96.05,42.34.07,2.56,0,4.62-2.08,4.62-4.65l-.07-42.52c0-1.24-.49-2.42-1.36-3.3Z"/>
  <path class="cls-1" d="m114.32,6.65l-9.87,9.91,4.2,4.22,8.5-8.54c.63-.63,1.49-.99,2.38-.99l34.45-.06c2.56,0,4.63,2.08,4.63,4.65l-.05,34.59c0,.9-.36,1.75-.99,2.39l-8.5,8.54,4.2,4.22,9.87-9.92c.87-.87,1.36-2.05,1.36-3.28.01-7.43.05-32.1.07-42.53,0-2.57-2.07-4.64-4.63-4.64l-42.33.07c-1.23,0-2.41.49-3.28,1.37Z"/>
  <path class="cls-1" d="m6.62,114.83l9.87-9.91,4.2,4.22-8.5,8.54c-.63.63-.99,1.49-.99,2.39l-.06,34.6c0,2.57,2.07,4.65,4.63,4.65l34.44-.05c.89,0,1.75-.36,2.38-.99l8.5-8.54,4.2,4.22-9.87,9.92c-.87.87-2.04,1.36-3.27,1.37-7.39.01-31.96.05-42.34.07-2.56,0-4.62-2.08-4.62-4.65l.07-42.52c0-1.24.49-2.42,1.36-3.3Z"/>
  <path class="cls-1" d="m55.42,6.65l9.87,9.91-4.2,4.22-8.5-8.54c-.63-.63-1.49-.99-2.38-.99l-34.45-.06c-2.56,0-4.63,2.08-4.63,4.65l.05,34.59c0,.9.36,1.75.99,2.39l8.5,8.54-4.2,4.22-9.87-9.92c-.87-.87-1.36-2.05-1.36-3.28-.01-7.43-.05-32.1-.07-42.53,0-2.57,2.07-4.64,4.63-4.64l42.33.07c1.23,0,2.41.49,3.28,1.37Z"/>
  <g>
    <path class="cls-1" d="m142.87,58.84h-10.63s0,4.54,0,4.54h9.15c.68,0,1.33.27,1.81.75l18.58,18.6c1.38,1.38,1.38,3.63,0,5.01l-18.58,18.6c-.48.48-1.13.75-1.81.75h-9.15s0,4.54,0,4.54h10.63c.94,0,1.83-.37,2.49-1.03,3.99-3.99,17.24-17.26,22.84-22.87,1.38-1.38,1.38-3.62,0-5l-22.83-22.86c-.66-.66-1.56-1.04-2.5-1.04Z"/>
    <path class="cls-1" d="m58.59,26.99v10.68s4.52,0,4.52,0v-9.2c0-.68.27-1.34.75-1.82l18.52-18.66c1.38-1.39,3.61-1.39,4.99,0l18.52,18.66c.48.48.75,1.14.75,1.82v9.19s4.52,0,4.52,0v-10.68c0-.94-.37-1.84-1.03-2.5-3.98-4.01-17.18-17.32-22.76-22.94-1.38-1.39-3.6-1.38-4.98,0l-22.76,22.94c-.66.67-1.03,1.57-1.03,2.51Z"/>
    <path class="cls-1" d="m58.58,143.51v-10.68s4.52,0,4.52,0v9.2c0,.68.27,1.34.75,1.82l18.52,18.66c1.38,1.39,3.61,1.39,4.99,0l18.52-18.66c.48-.48.75-1.14.75-1.82v-9.19s4.52,0,4.52,0v10.68c0,.94-.37,1.84-1.03,2.5-3.98,4.01-17.18,17.32-22.77,22.94-1.38,1.39-3.6,1.38-4.98,0l-22.76-22.93c-.66-.67-1.03-1.57-1.03-2.51Z"/>
    <path class="cls-1" d="m26.87,58.85h10.63s0,4.54,0,4.54h-9.15c-.68,0-1.33.27-1.81.75l-18.58,18.6c-1.38,1.38-1.38,3.63,0,5.01l18.57,18.6c.48.48,1.13.75,1.81.75h9.15s0,4.54,0,4.54h-10.63c-.94,0-1.83-.37-2.49-1.03-3.99-3.99-17.24-17.26-22.84-22.87-1.38-1.38-1.38-3.62,0-5l22.84-22.86c.66-.66,1.56-1.04,2.5-1.04Z"/>
  </g>
  <g>
    <path class="cls-1" d="m101.9,39.78l-5.71,5.73,2.43,2.44,4.92-4.94c.36-.37.86-.57,1.37-.57l19.92-.03c1.48,0,2.68,1.2,2.68,2.69l-.03,20.01c0,.52-.21,1.01-.57,1.38l-4.92,4.94,2.43,2.44,5.71-5.74c.5-.5.79-1.19.79-1.9,0-4.3.03-18.57.04-24.6,0-1.49-1.2-2.69-2.68-2.68l-24.49.04c-.71,0-1.39.29-1.9.79Z"/>
    <path class="cls-1" d="m39.61,68.14l5.71,5.73,2.43-2.44-4.92-4.94c-.37-.37-.57-.86-.57-1.38l-.03-20.01c0-1.49,1.2-2.69,2.68-2.69l19.92.03c.52,0,1.01.21,1.38.57l4.92,4.94,2.43-2.44-5.71-5.74c-.5-.51-1.18-.79-1.89-.79-4.28,0-18.49-.03-24.49-.04-1.48,0-2.67,1.2-2.67,2.69l.04,24.6c0,.71.28,1.4.79,1.91Z"/>
    <path class="cls-1" d="m101.91,130.72l-5.71-5.73,2.43-2.44,4.92,4.94c.37.37.86.57,1.37.57l19.92.03c1.48,0,2.68-1.2,2.68-2.69l-.03-20.01c0-.52-.21-1.01-.57-1.38l-4.92-4.94,2.43-2.44,5.71,5.74c.5.51.79,1.19.79,1.9,0,4.3.03,18.57.04,24.6,0,1.49-1.2,2.69-2.68,2.68l-24.49-.04c-.71,0-1.39-.29-1.9-.79Z"/>
    <path class="cls-1" d="m39.61,102.36l5.71-5.73,2.43,2.44-4.92,4.94c-.36.37-.57.86-.57,1.38l-.03,20.01c0,1.49,1.2,2.69,2.68,2.69l19.92-.03c.52,0,1.01-.21,1.38-.57l4.92-4.94,2.43,2.44-5.71,5.74c-.5.5-1.18.79-1.89.79-4.28,0-18.49.03-24.49.04-1.48,0-2.67-1.2-2.67-2.69l.04-24.6c0-.71.28-1.4.79-1.91Z"/>
  </g>
  <g>
    <path class="cls-1" d="m118.37,70h-6.14s0,2.62,0,2.62h5.29c.39,0,.77.16,1.05.43l10.73,10.74c.8.8.8,2.09,0,2.89l-10.73,10.75c-.28.28-.65.43-1.05.43h-5.29s0,2.62,0,2.62h6.14c.54,0,1.06-.21,1.44-.6,2.3-2.31,9.96-9.97,13.19-13.21.8-.8.8-2.09,0-2.89l-13.19-13.2c-.38-.38-.9-.6-1.44-.6Z"/>
    <path class="cls-1" d="m69.69,51.6v6.17s2.61,0,2.61,0v-5.31c0-.39.16-.77.43-1.05l10.7-10.78c.8-.8,2.08-.8,2.88,0l10.7,10.78c.28.28.43.66.43,1.05v5.31s2.61,0,2.61,0v-6.17c0-.54-.21-1.06-.59-1.45-2.3-2.31-9.92-10-13.15-13.25-.79-.8-2.08-.8-2.88,0l-13.15,13.25c-.38.38-.6.91-.6,1.45Z"/>
    <path class="cls-1" d="m69.69,118.9v-6.17s2.61,0,2.61,0v5.31c0,.39.15.77.43,1.05l10.7,10.78c.8.8,2.08.8,2.88,0l10.7-10.78c.28-.28.43-.66.43-1.05v-5.31s2.61,0,2.61,0v6.17c0,.54-.21,1.06-.59,1.45-2.3,2.31-9.93,10-13.15,13.25-.79.8-2.08.8-2.88,0l-13.14-13.25c-.38-.38-.6-.91-.6-1.45Z"/>
    <path class="cls-1" d="m51.37,70.01h6.14s0,2.62,0,2.62h-5.29c-.39,0-.77.16-1.05.43l-10.73,10.75c-.8.8-.8,2.09,0,2.89l10.73,10.74c.28.28.65.43,1.05.43h5.29s0,2.62,0,2.62h-6.14c-.54,0-1.06-.21-1.44-.6-2.3-2.31-9.96-9.97-13.19-13.21-.8-.8-.79-2.09,0-2.89l13.19-13.21c.38-.38.9-.6,1.44-.6Z"/>
  </g>
  <path class="cls-1" d="m107.11,72.55l-9.79-10.03c-1.48-1.52-3.5-2.37-5.61-2.37h-13.68c-2.11,0-4.13.85-5.61,2.37l-9.79,10.03c-1.44,1.48-2.24,3.46-2.24,5.52v14.35c0,2.07.81,4.05,2.24,5.52l9.79,10.03c1.48,1.52,3.5,2.37,5.61,2.37h13.68c2.11,0,4.13-.85,5.61-2.37l9.79-10.03c1.44-1.48,2.24-3.46,2.24-5.52v-14.35c0-2.07-.81-4.05-2.24-5.52Zm-.65,18.65c0,2.06-.8,4.05-2.24,5.52l-8.09,8.3c-1.48,1.52-3.5,2.37-5.61,2.37h-11.28c-2.11,0-4.13-.85-5.61-2.37l-8.09-8.3c-1.44-1.48-2.24-3.46-2.24-5.52v-11.9c0-2.06.8-4.05,2.24-5.52l8.09-8.3c1.48-1.52,3.5-2.37,5.61-2.37h11.28c2.11,0,4.13.85,5.61,2.37l8.09,8.3c1.44,1.48,2.24,3.46,2.24,5.52v11.9Z"/>
</svg>